<svg xmlns="http://www.w3.org/2000/svg" xmlns:xlink="http://www.w3.org/1999/xlink" width="500" zoomAndPan="magnify" viewBox="0 0 375 374.999991" height="500" preserveAspectRatio="xMidYMid meet" version="1.0"><defs><g/><clipPath id="b14075ed76"><path d="M 149 135.652344 L 173.578125 135.652344 L 173.578125 178.402344 L 149 178.402344 Z M 149 135.652344 " clip-rule="nonzero"/></clipPath><clipPath id="6c8d6b7b82"><path d="M 129.328125 138 L 148 138 L 148 171 L 129.328125 171 Z M 129.328125 138 " clip-rule="nonzero"/></clipPath><clipPath id="a4665fc3a6"><path d="M 133.789062 138.273438 C 133.378906 140.347656 134.414062 142.484375 135.90625 143.972656 C 137.398438 145.464844 139.304688 146.457031 141.128906 147.523438 C 142.949219 148.589844 144.769531 149.804688 145.917969 151.578125 C 146.914062 153.121094 147.320312 154.96875 147.527344 156.796875 C 147.78125 159.007812 147.75 161.332031 147.042969 163.417969 C 146.53125 162.160156 145.867188 160.957031 145.105469 159.835938 C 143.613281 157.625 141.777344 155.675781 139.949219 153.738281 C 137.8125 151.472656 135.683594 149.207031 133.546875 146.941406 C 135.753906 151.085938 139.179688 154.421875 142.078125 158.121094 C 144.976562 161.816406 147.441406 166.234375 147.171875 170.921875 C 146.957031 168.523438 145.011719 166.621094 142.898438 165.460938 C 140.789062 164.296875 138.421875 163.652344 136.335938 162.441406 C 132.398438 160.136719 129.75 155.769531 129.542969 151.21875 C 129.335938 146.613281 131.4375 142.238281 133.789062 138.273438 Z M 133.789062 138.273438 " clip-rule="nonzero"/></clipPath><linearGradient x1="-1204.20996" gradientTransform="matrix(-0.0429867, 0, 0, 0.0429867, 86.836413, 135.652117)" y1="60.999831" x2="-1204.20996" gradientUnits="userSpaceOnUse" y2="820.499888" id="55ff0a58d6"><stop stop-opacity="1" stop-color="rgb(53.503418%, 74.87793%, 25.770569%)" offset="0"/><stop stop-opacity="1" stop-color="rgb(53.413391%, 74.772644%, 25.761414%)" offset="0.125"/><stop stop-opacity="1" stop-color="rgb(53.234863%, 74.565125%, 25.744629%)" offset="0.25"/><stop stop-opacity="1" stop-color="rgb(53.05481%, 74.356079%, 25.727844%)" offset="0.375"/><stop stop-opacity="1" stop-color="rgb(52.876282%, 74.147034%, 25.71106%)" offset="0.5"/><stop stop-opacity="1" stop-color="rgb(52.696228%, 73.939514%, 25.694275%)" offset="0.625"/><stop stop-opacity="1" stop-color="rgb(52.5177%, 73.730469%, 25.67749%)" offset="0.75"/><stop stop-opacity="1" stop-color="rgb(52.337646%, 73.522949%, 25.660706%)" offset="0.875"/><stop stop-opacity="1" stop-color="rgb(52.157593%, 73.313904%, 25.645447%)" offset="1"/></linearGradient></defs><rect x="-37.5" width="450" fill="#ffffff" y="-37.499999" height="449.999989" fill-opacity="1"/><rect x="-37.5" width="450" fill="#1d4b0b" y="-37.499999" height="449.999989" fill-opacity="1"/><g fill="#ffffff" fill-opacity="1"><g transform="translate(92.917233, 210.21404)"><g><path d="M 18.625 -61.953125 L 18.625 -12.390625 L 39.953125 -12.390625 L 39.953125 0 L 4.5 0 L 4.5 -61.953125 Z M 18.625 -61.953125 "/></g></g></g><g fill="#ffffff" fill-opacity="1"><g transform="translate(128.958989, 210.21404)"><g><path d="M 43.484375 -17.421875 L 15.546875 -17.421875 C 15.546875 -14.710938 16.421875 -12.707031 18.171875 -11.40625 C 19.921875 -10.113281 21.820312 -9.46875 23.875 -9.46875 C 26.03125 -9.46875 27.734375 -9.753906 28.984375 -10.328125 C 30.234375 -10.898438 31.660156 -12.035156 33.265625 -13.734375 L 42.875 -8.9375 C 38.875 -2.226562 32.21875 1.125 22.90625 1.125 C 17.09375 1.125 12.109375 -0.863281 7.953125 -4.84375 C 3.804688 -8.820312 1.734375 -13.613281 1.734375 -19.21875 C 1.734375 -24.832031 3.804688 -29.640625 7.953125 -33.640625 C 12.109375 -37.648438 17.09375 -39.65625 22.90625 -39.65625 C 29.007812 -39.65625 33.972656 -37.890625 37.796875 -34.359375 C 41.628906 -30.828125 43.546875 -25.78125 43.546875 -19.21875 C 43.546875 -18.320312 43.523438 -17.722656 43.484375 -17.421875 Z M 15.921875 -24.78125 L 30.5625 -24.78125 C 30.257812 -26.78125 29.46875 -28.316406 28.1875 -29.390625 C 26.914062 -30.472656 25.28125 -31.015625 23.28125 -31.015625 C 21.070312 -31.015625 19.316406 -30.4375 18.015625 -29.28125 C 16.710938 -28.132812 16.015625 -26.632812 15.921875 -24.78125 Z M 15.921875 -24.78125 "/></g></g></g><g fill="#ffffff" fill-opacity="1"><g transform="translate(167.854123, 210.21404)"><g><path d="M 7.140625 -4.765625 C 3.535156 -8.691406 1.734375 -13.507812 1.734375 -19.21875 C 1.734375 -24.925781 3.535156 -29.757812 7.140625 -33.71875 C 10.742188 -37.675781 15.320312 -39.65625 20.875 -39.65625 C 25.976562 -39.65625 30.179688 -38.050781 33.484375 -34.84375 L 33.484375 -38.515625 L 46.78125 -38.515625 L 46.78125 0 L 33.640625 0 L 33.640625 -4.359375 L 33.484375 -4.359375 C 30.179688 -0.703125 25.976562 1.125 20.875 1.125 C 15.320312 1.125 10.742188 -0.835938 7.140625 -4.765625 Z M 18.4375 -25.75 C 16.707031 -24.050781 15.84375 -21.875 15.84375 -19.21875 C 15.84375 -16.570312 16.664062 -14.410156 18.3125 -12.734375 C 19.96875 -11.054688 22.148438 -10.21875 24.859375 -10.21875 C 27.460938 -10.21875 29.601562 -11.066406 31.28125 -12.765625 C 32.957031 -14.460938 33.796875 -16.613281 33.796875 -19.21875 C 33.796875 -21.875 32.929688 -24.050781 31.203125 -25.75 C 29.472656 -27.457031 27.359375 -28.3125 24.859375 -28.3125 C 22.304688 -28.3125 20.164062 -27.457031 18.4375 -25.75 Z M 18.4375 -25.75 "/></g></g></g><g fill="#ffffff" fill-opacity="1"><g transform="translate(212.756347, 210.21404)"><g><path d="M 6.765625 -38.515625 L 6.765625 -46.703125 C 6.804688 -52.460938 8.15625 -57.066406 10.8125 -60.515625 C 13.46875 -63.972656 17.148438 -65.703125 21.859375 -65.703125 C 23.859375 -65.703125 25.769531 -65.414062 27.59375 -64.84375 C 29.425781 -64.269531 30.742188 -63.679688 31.546875 -63.078125 L 32.8125 -62.25 L 28.15625 -52.859375 C 26.957031 -53.566406 25.632812 -53.921875 24.1875 -53.921875 C 22.53125 -53.921875 21.425781 -53.351562 20.875 -52.21875 C 20.320312 -51.09375 20.046875 -49.128906 20.046875 -46.328125 L 20.046875 -38.515625 L 28.90625 -38.515625 L 28.90625 -28.390625 L 20.046875 -28.390625 L 20.046875 0 L 6.765625 0 L 6.765625 -28.390625 L 1.203125 -28.390625 L 1.203125 -38.515625 Z M 6.765625 -38.515625 "/></g></g></g><g fill="#ffffff" fill-opacity="1"><g transform="translate(234.531259, 210.21404)"><g><path d="M 33.71875 -38.515625 L 49.03125 -38.515625 L 18.765625 19.53125 L 3.453125 19.53125 L 16.75 -6 L -1.5 -38.515625 L 13.8125 -38.515625 L 24.5625 -18.765625 Z M 33.71875 -38.515625 "/></g></g></g><g clip-path="url(#b14075ed76)"><path fill="#8cc342" d="M 167.433594 135.652344 C 167.976562 138.386719 166.609375 141.207031 164.640625 143.175781 C 162.671875 145.148438 160.15625 146.453125 157.75 147.859375 C 155.34375 149.265625 152.941406 150.871094 151.433594 153.210938 C 150.117188 155.25 149.578125 157.691406 149.304688 160.097656 C 148.960938 163.023438 149.007812 166.085938 149.9375 168.835938 C 150.613281 167.179688 151.492188 165.59375 152.496094 164.109375 C 154.464844 161.191406 156.886719 158.617188 159.300781 156.054688 C 162.117188 153.0625 164.933594 150.074219 167.753906 147.082031 C 164.835938 152.550781 160.3125 156.960938 156.492188 161.839844 C 152.671875 166.722656 149.410156 172.550781 149.769531 178.742188 C 150.050781 175.574219 152.625 173.058594 155.414062 171.527344 C 158.203125 170 161.328125 169.144531 164.074219 167.542969 C 169.273438 164.519531 172.765625 158.75 173.039062 152.738281 C 173.3125 146.660156 170.539062 140.878906 167.433594 135.652344 Z M 167.433594 135.652344 " fill-opacity="1" fill-rule="nonzero"/></g><g clip-path="url(#6c8d6b7b82)"><g clip-path="url(#a4665fc3a6)"><path fill="url(#55ff0a58d6)" d="M 147.78125 138.273438 L 147.78125 170.921875 L 129.335938 170.921875 L 129.335938 138.273438 Z M 147.78125 138.273438 " fill-rule="nonzero"/></g></g><g fill="#ffffff" fill-opacity="1"><g transform="translate(215.141929, 248.916034)"><g><path d="M 11.9375 -4.375 C 11.9375 -3.726562 11.789062 -3.113281 11.5 -2.53125 C 11.207031 -1.945312 10.816406 -1.472656 10.328125 -1.109375 C 9.378906 -0.367188 8.109375 0 6.515625 0 L 1.71875 0 L 1.71875 -15.640625 L 5.953125 -15.640625 C 8.242188 -15.640625 9.734375 -14.9375 10.421875 -13.53125 C 10.660156 -13.019531 10.78125 -12.503906 10.78125 -11.984375 C 10.78125 -11.460938 10.742188 -11.054688 10.671875 -10.765625 C 10.578125 -10.453125 10.453125 -10.160156 10.296875 -9.890625 C 9.953125 -9.296875 9.503906 -8.875 8.953125 -8.625 C 9.867188 -8.375 10.59375 -7.882812 11.125 -7.15625 C 11.664062 -6.40625 11.9375 -5.476562 11.9375 -4.375 Z M 9.171875 -11.734375 C 9.171875 -13.304688 8.097656 -14.09375 5.953125 -14.09375 L 3.328125 -14.09375 L 3.328125 -9.21875 L 6.421875 -9.21875 C 7.242188 -9.21875 7.910156 -9.425781 8.421875 -9.84375 C 8.921875 -10.257812 9.171875 -10.890625 9.171875 -11.734375 Z M 10.328125 -4.671875 C 10.328125 -5.128906 10.242188 -5.535156 10.078125 -5.890625 C 9.890625 -6.242188 9.660156 -6.550781 9.390625 -6.8125 C 8.773438 -7.34375 8.050781 -7.609375 7.21875 -7.609375 L 3.328125 -7.609375 L 3.328125 -1.546875 L 6.96875 -1.546875 C 7.945312 -1.546875 8.753906 -1.828125 9.390625 -2.390625 C 10.015625 -2.972656 10.328125 -3.734375 10.328125 -4.671875 Z M 10.328125 -4.671875 "/></g></g></g><g fill="#ffffff" fill-opacity="1"><g transform="translate(227.534758, 248.916034)"><g><path d="M 10 -5.109375 C 10 -6.117188 9.640625 -6.984375 8.921875 -7.703125 C 8.203125 -8.421875 7.335938 -8.78125 6.328125 -8.78125 C 5.316406 -8.78125 4.445312 -8.421875 3.71875 -7.703125 C 3 -6.984375 2.640625 -6.117188 2.640625 -5.109375 C 2.640625 -4.109375 3 -3.25 3.71875 -2.53125 C 4.445312 -1.8125 5.316406 -1.453125 6.328125 -1.453125 C 7.335938 -1.453125 8.203125 -1.8125 8.921875 -2.53125 C 9.640625 -3.25 10 -4.109375 10 -5.109375 Z M 11.609375 -5.109375 C 11.609375 -3.628906 11.097656 -2.382812 10.078125 -1.375 C 9.015625 -0.351562 7.765625 0.15625 6.328125 0.15625 C 4.878906 0.15625 3.632812 -0.351562 2.59375 -1.375 C 1.550781 -2.382812 1.03125 -3.628906 1.03125 -5.109375 C 1.03125 -6.566406 1.550781 -7.816406 2.59375 -8.859375 C 3.625 -9.878906 4.867188 -10.390625 6.328125 -10.390625 C 7.785156 -10.390625 9.035156 -9.878906 10.078125 -8.859375 C 11.097656 -7.816406 11.609375 -6.566406 11.609375 -5.109375 Z M 11.609375 -5.109375 "/></g></g></g><g fill="#ffffff" fill-opacity="1"><g transform="translate(240.180501, 248.916034)"><g><path d="M 0.453125 -8.625 L 0.453125 -10.125 L 2.984375 -10.125 L 2.984375 -14.046875 L 4.59375 -14.046875 L 4.59375 -10.125 L 7.109375 -10.125 L 7.109375 -8.625 L 4.59375 -8.625 L 4.59375 0 L 2.984375 0 L 2.984375 -8.625 Z M 0.453125 -8.625 "/></g></g></g><g fill="#ffffff" fill-opacity="1"><g transform="translate(247.744954, 248.916034)"><g><path d="M 9.78125 -5.0625 C 9.78125 -6.039062 9.441406 -6.898438 8.765625 -7.640625 C 8.078125 -8.367188 7.222656 -8.734375 6.203125 -8.734375 C 5.191406 -8.734375 4.351562 -8.367188 3.6875 -7.640625 C 2.988281 -6.898438 2.640625 -6.039062 2.640625 -5.0625 C 2.640625 -4.082031 2.988281 -3.222656 3.6875 -2.484375 C 4.351562 -1.742188 5.191406 -1.375 6.203125 -1.375 C 7.222656 -1.375 8.078125 -1.742188 8.765625 -2.484375 C 9.441406 -3.222656 9.78125 -4.082031 9.78125 -5.0625 Z M 11.390625 0 L 9.78125 0 L 9.78125 -1.71875 C 9.6875 -1.601562 9.59375 -1.488281 9.5 -1.375 C 8.53125 -0.300781 7.347656 0.234375 5.953125 0.234375 C 4.554688 0.234375 3.382812 -0.300781 2.4375 -1.375 C 1.5 -2.414062 1.03125 -3.644531 1.03125 -5.0625 C 1.03125 -6.46875 1.5 -7.691406 2.4375 -8.734375 C 3.382812 -9.804688 4.554688 -10.34375 5.953125 -10.34375 C 7.347656 -10.34375 8.53125 -9.804688 9.5 -8.734375 C 9.59375 -8.628906 9.6875 -8.515625 9.78125 -8.390625 L 9.78125 -10.125 L 11.390625 -10.125 Z M 11.390625 0 "/></g></g></g><g fill="#ffffff" fill-opacity="1"><g transform="translate(260.850533, 248.916034)"><g><path d="M 8.71875 0 L 8.71875 -6.328125 C 8.71875 -6.984375 8.570312 -7.550781 8.28125 -8.03125 C 7.96875 -8.488281 7.46875 -8.71875 6.78125 -8.71875 C 6.09375 -8.71875 5.535156 -8.585938 5.109375 -8.328125 C 4.679688 -8.066406 4.335938 -7.726562 4.078125 -7.3125 C 3.578125 -6.539062 3.328125 -5.515625 3.328125 -4.234375 L 3.328125 0 L 1.71875 0 L 1.71875 -10.125 L 3.328125 -10.125 L 3.328125 -8.375 C 3.671875 -8.9375 4.101562 -9.40625 4.625 -9.78125 C 5.175781 -10.144531 5.8125 -10.328125 6.53125 -10.328125 C 7.25 -10.328125 7.832031 -10.226562 8.28125 -10.03125 C 8.726562 -9.8125 9.101562 -9.523438 9.40625 -9.171875 C 10.019531 -8.453125 10.328125 -7.503906 10.328125 -6.328125 L 10.328125 0 Z M 8.71875 0 "/></g></g></g><g fill="#ffffff" fill-opacity="1"><g transform="translate(272.553592, 248.916034)"><g><path d="M 3.359375 -13.609375 C 3.554688 -13.410156 3.65625 -13.175781 3.65625 -12.90625 C 3.65625 -12.613281 3.554688 -12.367188 3.359375 -12.171875 C 3.160156 -11.972656 2.921875 -11.875 2.640625 -11.875 C 2.347656 -11.875 2.101562 -11.972656 1.90625 -12.171875 C 1.707031 -12.367188 1.609375 -12.613281 1.609375 -12.90625 C 1.609375 -13.175781 1.707031 -13.410156 1.90625 -13.609375 C 2.101562 -13.816406 2.347656 -13.921875 2.640625 -13.921875 C 2.921875 -13.921875 3.160156 -13.816406 3.359375 -13.609375 Z M 3.453125 0 L 1.84375 0 L 1.84375 -10.125 L 3.453125 -10.125 Z M 3.453125 0 "/></g></g></g><g fill="#ffffff" fill-opacity="1"><g transform="translate(277.818812, 248.916034)"><g><path d="M 3.203125 -1.453125 C 3.597656 -1.171875 4.117188 -1.03125 4.765625 -1.03125 C 6.234375 -1.03125 6.96875 -1.582031 6.96875 -2.6875 C 6.96875 -3.332031 6.4375 -3.820312 5.375 -4.15625 C 4.9375 -4.3125 4.460938 -4.453125 3.953125 -4.578125 C 3.429688 -4.703125 2.945312 -4.863281 2.5 -5.0625 C 1.976562 -5.300781 1.585938 -5.609375 1.328125 -5.984375 C 1.066406 -6.347656 0.9375 -6.785156 0.9375 -7.296875 C 0.9375 -8.304688 1.289062 -9.0625 2 -9.5625 C 2.707031 -10.082031 3.550781 -10.34375 4.53125 -10.34375 C 5.507812 -10.34375 6.320312 -10.144531 6.96875 -9.75 C 7.613281 -9.351562 8.050781 -8.640625 8.28125 -7.609375 L 6.5625 -7.609375 C 6.375 -8.179688 6.101562 -8.554688 5.75 -8.734375 C 5.414062 -8.921875 4.992188 -9.015625 4.484375 -9.015625 C 3.972656 -9.015625 3.546875 -8.90625 3.203125 -8.6875 C 2.828125 -8.457031 2.640625 -8.125 2.640625 -7.6875 C 2.640625 -7.21875 2.796875 -6.878906 3.109375 -6.671875 C 3.398438 -6.472656 3.765625 -6.296875 4.203125 -6.140625 C 4.648438 -6.003906 5.132812 -5.878906 5.65625 -5.765625 C 6.164062 -5.648438 6.648438 -5.484375 7.109375 -5.265625 C 8.148438 -4.773438 8.671875 -3.984375 8.671875 -2.890625 C 8.671875 -1.804688 8.28125 -1.003906 7.5 -0.484375 C 7.101562 -0.222656 6.664062 -0.0234375 6.1875 0.109375 C 5.726562 0.234375 5.222656 0.296875 4.671875 0.296875 C 2.328125 0.296875 0.976562 -0.742188 0.625 -2.828125 L 2.328125 -2.828125 C 2.492188 -2.171875 2.785156 -1.710938 3.203125 -1.453125 Z M 3.203125 -1.453125 "/></g></g></g><g fill="#ffffff" fill-opacity="1"><g transform="translate(287.061701, 248.916034)"><g><path d="M 0.453125 -8.625 L 0.453125 -10.125 L 2.984375 -10.125 L 2.984375 -14.046875 L 4.59375 -14.046875 L 4.59375 -10.125 L 7.109375 -10.125 L 7.109375 -8.625 L 4.59375 -8.625 L 4.59375 0 L 2.984375 0 L 2.984375 -8.625 Z M 0.453125 -8.625 "/></g></g></g></svg>