<svg xmlns="http://www.w3.org/2000/svg" width="200" height="200" viewBox="0 0 200 200">
  <!-- Plant Icon -->
  <g id="plant" transform="translate(0, 0)">
    <path d="M25,50 C25,25 40,20 40,20 C40,20 35,35 25,50 Z" fill="#4CAF50" stroke="#388E3C" stroke-width="1"/>
    <path d="M25,50 C25,25 10,20 10,20 C10,20 15,35 25,50 Z" fill="#4CAF50" stroke="#388E3C" stroke-width="1"/>
    <rect x="23" y="50" width="4" height="15" fill="#8D6E63" stroke="#5D4037" stroke-width="1"/>
  </g>

  <!-- Healthy Plant Icon -->
  <g id="healthy_plant" transform="translate(60, 0)">
    <path d="M25,10 C40,15 45,30 25,50 C5,30 10,15 25,10 Z" fill="#4CAF50" stroke="#388E3C" stroke-width="1"/>
    <rect x="23" y="50" width="4" height="15" fill="#8D6E63" stroke="#5D4037" stroke-width="1"/>
  </g>

  <!-- Diseased Plant Icon -->
  <g id="diseased_plant" transform="translate(120, 0)">
    <path d="M25,10 C40,15 45,30 25,50 C5,30 10,15 25,10 Z" fill="#FFA726" stroke="#F57C00" stroke-width="1"/>
    <circle cx="20" cy="25" r="3" fill="#E53935"/>
    <circle cx="30" cy="35" r="3" fill="#E53935"/>
    <circle cx="15" cy="40" r="3" fill="#E53935"/>
    <rect x="23" y="50" width="4" height="15" fill="#8D6E63" stroke="#5D4037" stroke-width="1"/>
  </g>

  <!-- Camera Icon -->
  <g id="camera" transform="translate(0, 60)">
    <rect x="10" y="15" width="30" height="25" rx="2" ry="2" fill="#607D8B" stroke="#455A64" stroke-width="1"/>
    <circle cx="25" cy="27.5" r="10" fill="#90A4AE" stroke="#455A64" stroke-width="1"/>
    <circle cx="25" cy="27.5" r="5" fill="#ECEFF1" stroke="#455A64" stroke-width="1"/>
    <rect x="15" y="10" width="20" height="5" rx="2" ry="2" fill="#607D8B" stroke="#455A64" stroke-width="1"/>
  </g>

  <!-- Diagnosis Icon -->
  <g id="diagnosis" transform="translate(60, 60)">
    <circle cx="25" cy="25" r="15" fill="#FFFFFF" stroke="#4CAF50" stroke-width="2"/>
    <path d="M18,25 L23,30 L32,20" stroke="#4CAF50" stroke-width="2" fill="none" stroke-linecap="round" stroke-linejoin="round"/>
  </g>

  <!-- Treatment Icon -->
  <g id="treatment" transform="translate(120, 60)">
    <rect x="15" y="15" width="20" height="30" rx="2" ry="2" fill="#FFFFFF" stroke="#2196F3" stroke-width="1"/>
    <rect x="20" y="10" width="10" height="5" rx="1" ry="1" fill="#FFFFFF" stroke="#2196F3" stroke-width="1"/>
    <line x1="20" y1="25" x2="30" y2="25" stroke="#2196F3" stroke-width="1"/>
    <line x1="20" y1="30" x2="30" y2="30" stroke="#2196F3" stroke-width="1"/>
    <line x1="20" y1="35" x2="25" y2="35" stroke="#2196F3" stroke-width="1"/>
  </g>
</svg>